NotoSerifBengali-Thin.ufo
<glyph name="four" format="2">
  <advance width="559"/>
  <unicode hex="0034"/>
  <outline>
    <contour>
      <point x="265" y="0" type="line"/>
      <point x="496" y="0" type="line"/>
      <point x="496" y="20" type="line"/>
      <point x="457" y="20" type="line" smooth="yes"/>
      <point x="407" y="20"/>
      <point x="401" y="31"/>
      <point x="401" y="108" type="curve" smooth="yes"/>
      <point x="401" y="208" type="line"/>
      <point x="543" y="208" type="line"/>
      <point x="543" y="233" type="line"/>
      <point x="401" y="233" type="line"/>
      <point x="401" y="714" type="line"/>
      <point x="373" y="714" type="line"/>
      <point x="21" y="225" type="line"/>
      <point x="21" y="208" type="line"/>
      <point x="374" y="208" type="line"/>
      <point x="374" y="108" type="line" smooth="yes"/>
      <point x="374" y="31"/>
      <point x="368" y="20"/>
      <point x="318" y="20" type="curve" smooth="yes"/>
      <point x="265" y="20" type="line"/>
    </contour>
    <contour>
      <point x="56" y="233" type="line"/>
      <point x="257" y="512" type="line" smooth="yes"/>
      <point x="293" y="562"/>
      <point x="363" y="662"/>
      <point x="376" y="685" type="curve"/>
      <point x="375" y="623"/>
      <point x="374" y="507"/>
      <point x="374" y="449" type="curve" smooth="yes"/>
      <point x="374" y="233" type="line"/>
    </contour>
  </outline>
</glyph>
<glyph name="seven" format="2">
  <advance width="559"/>
  <unicode hex="0037"/>
  <outline>
    <contour>
      <point x="183" y="0" type="line"/>
      <point x="213" y="0" type="line"/>
      <point x="493" y="692" type="line"/>
      <point x="493" y="714" type="line"/>
      <point x="65" y="714" type="line"/>
      <point x="59" y="570" type="line"/>
      <point x="79" y="570" type="line"/>
      <point x="83" y="633" type="line" smooth="yes"/>
      <point x="86" y="682"/>
      <point x="97" y="686"/>
      <point x="133" y="686" type="curve" smooth="yes"/>
      <point x="463" y="686" type="line"/>
    </contour>
  </outline>
</glyph>
<glyph name="colon" format="2">
  <advance width="239"/>
  <unicode hex="003A"/>
  <outline>
    <contour>
      <point x="146" y="433" type="curve" smooth="yes"/>
      <point x="162" y="433"/>
      <point x="175" y="442"/>
      <point x="175" y="473" type="curve" smooth="yes"/>
      <point x="175" y="503"/>
      <point x="162" y="511"/>
      <point x="146" y="511" type="curve" smooth="yes"/>
      <point x="131" y="511"/>
      <point x="117" y="503"/>
      <point x="117" y="473" type="curve" smooth="yes"/>
      <point x="117" y="442"/>
      <point x="131" y="433"/>
    </contour>
    <contour>
      <point x="146" y="-5" type="curve" smooth="yes"/>
      <point x="162" y="-5"/>
      <point x="175" y="4"/>
      <point x="175" y="35" type="curve" smooth="yes"/>
      <point x="175" y="65"/>
      <point x="162" y="73"/>
      <point x="146" y="73" type="curve" smooth="yes"/>
      <point x="131" y="73"/>
      <point x="117" y="65"/>
      <point x="117" y="35" type="curve" smooth="yes"/>
      <point x="117" y="4"/>
      <point x="131" y="-5"/>
    </contour>
  </outline>
</glyph>
<glyph name="semicolon" format="2">
  <advance width="275"/>
  <unicode hex="003B"/>
  <outline>
    <contour>
      <point x="78" y="-154" type="line"/>
      <point x="159" y="-127"/>
      <point x="190" y="-67"/>
      <point x="190" y="0" type="curve" smooth="yes"/>
      <point x="190" y="52"/>
      <point x="166" y="73"/>
      <point x="139" y="73" type="curve" smooth="yes"/>
      <point x="120" y="73"/>
      <point x="112" y="60"/>
      <point x="112" y="42" type="curve" smooth="yes"/>
      <point x="112" y="17"/>
      <point x="159" y="4"/>
      <point x="159" y="-30" type="curve" smooth="yes"/>
      <point x="159" y="-61"/>
      <point x="137" y="-115"/>
      <point x="78" y="-132" type="curve"/>
    </contour>
    <contour>
      <point x="146" y="433" type="curve" smooth="yes"/>
      <point x="162" y="433"/>
      <point x="175" y="442"/>
      <point x="175" y="473" type="curve" smooth="yes"/>
      <point x="175" y="503"/>
      <point x="162" y="511"/>
      <point x="146" y="511" type="curve" smooth="yes"/>
      <point x="131" y="511"/>
      <point x="117" y="503"/>
      <point x="117" y="473" type="curve" smooth="yes"/>
      <point x="117" y="442"/>
      <point x="131" y="433"/>
    </contour>
  </outline>
</glyph>
<glyph name="braceleft" format="2">
  <advance width="328"/>
  <unicode hex="007B"/>
  <outline>
    <contour>
      <point x="240" y="-132" type="curve" smooth="yes"/>
      <point x="270" y="-132" type="line"/>
      <point x="270" y="-107" type="line"/>
      <point x="240" y="-107" type="line" smooth="yes"/>
      <point x="183" y="-107"/>
      <point x="158" y="-68"/>
      <point x="158" y="6" type="curve" smooth="yes"/>
      <point x="158" y="187" type="line" smooth="yes"/>
      <point x="158" y="259"/>
      <point x="123" y="307"/>
      <point x="63" y="315" type="curve"/>
      <point x="63" y="317" type="line"/>
      <point x="122" y="324"/>
      <point x="158" y="373"/>
      <point x="158" y="443" type="curve" smooth="yes"/>
      <point x="158" y="620" type="line" smooth="yes"/>
      <point x="158" y="697"/>
      <point x="183" y="735"/>
      <point x="245" y="735" type="curve" smooth="yes"/>
      <point x="270" y="735" type="line"/>
      <point x="270" y="760" type="line"/>
      <point x="240" y="760" type="line" smooth="yes"/>
      <point x="169" y="760"/>
      <point x="129" y="710"/>
      <point x="129" y="621" type="curve" smooth="yes"/>
      <point x="129" y="445" type="line" smooth="yes"/>
      <point x="129" y="356"/>
      <point x="78" y="326"/>
      <point x="10" y="324" type="curve"/>
      <point x="10" y="306" type="line"/>
      <point x="78" y="303"/>
      <point x="129" y="274"/>
      <point x="129" y="184" type="curve" smooth="yes"/>
      <point x="129" y="8" type="line" smooth="yes"/>
      <point x="129" y="-78"/>
      <point x="169" y="-132"/>
    </contour>
  </outline>
</glyph>
<glyph name="udatta-deva" format="2">
  <unicode hex="0951"/>
  <anchor x="-299" y="-235" name="_vedic"/>
  <outline>
    <contour>
      <point x="-310" y="706" type="line"/>
      <point x="-288" y="706" type="line"/>
      <point x="-288" y="912" type="line"/>
      <point x="-310" y="912" type="line"/>
    </contour>
  </outline>
</glyph>
<glyph name="i-beng" format="2">
  <advance width="473"/>
  <unicode hex="0987"/>
  <anchor x="270" y="74" name="bottom"/>
  <anchor x="382" y="-100" name="bottom.rakaar"/>
  <anchor x="306" y="100" name="bottom.rvocalic"/>
  <anchor x="236" y="90" name="bottom.virama"/>
  <anchor x="267" y="626" name="top"/>
  <anchor x="207" y="636" name="topright"/>
  <anchor x="236" y="0" name="vedic"/>
  <outline>
    <contour>
      <point x="375" y="618" type="curve"/>
      <point x="394" y="618" type="line"/>
      <point x="388" y="720"/>
      <point x="346" y="769"/>
      <point x="274" y="769" type="curve" smooth="yes"/>
      <point x="221" y="769"/>
      <point x="173" y="756"/>
      <point x="115" y="756" type="curve" smooth="yes"/>
      <point x="54" y="756"/>
      <point x="21" y="783"/>
      <point x="21" y="861" type="curve" smooth="yes"/>
      <point x="21" y="872"/>
      <point x="22" y="885"/>
      <point x="24" y="898" type="curve"/>
      <point x="6" y="900" type="line"/>
      <point x="4" y="890"/>
      <point x="2" y="871"/>
      <point x="2" y="856" type="curve" smooth="yes"/>
      <point x="2" y="767"/>
      <point x="48" y="733"/>
      <point x="115" y="733" type="curve" smooth="yes"/>
      <point x="174" y="733"/>
      <point x="213" y="746"/>
      <point x="280" y="746" type="curve" smooth="yes"/>
      <point x="342" y="746"/>
      <point x="370" y="693"/>
    </contour>
    <component base="ha-beng"/>
  </outline>
</glyph>
<glyph name="u-beng" format="2">
  <advance width="634"/>
  <unicode hex="0989"/>
  <anchor x="445" y="40" name="bottom"/>
  <anchor x="493" y="-26" name="bottom.rakaar"/>
  <anchor x="412" y="85" name="bottom.rvocalic"/>
  <anchor x="380" y="30" name="bottom.virama"/>
  <anchor x="284" y="602" name="top"/>
  <anchor x="287" y="602" name="topright"/>
  <anchor x="317" y="0" name="vedic"/>
  <anchor x="334" y="-12" name="nukta"/>
  <outline>
    <contour>
      <point x="503" y="618" type="curve"/>
      <point x="522" y="618" type="line"/>
      <point x="512" y="720"/>
      <point x="457" y="769"/>
      <point x="382" y="769" type="curve" smooth="yes"/>
      <point x="319" y="769"/>
      <point x="282" y="755"/>
      <point x="211" y="755" type="curve" smooth="yes"/>
      <point x="139" y="755"/>
      <point x="101" y="783"/>
      <point x="101" y="861" type="curve" smooth="yes"/>
      <point x="101" y="872"/>
      <point x="102" y="885"/>
      <point x="104" y="898" type="curve"/>
      <point x="86" y="900" type="line"/>
      <point x="83" y="886"/>
      <point x="82" y="869"/>
      <point x="82" y="856" type="curve" smooth="yes"/>
      <point x="82" y="767"/>
      <point x="128" y="732"/>
      <point x="208" y="732" type="curve" smooth="yes"/>
      <point x="281" y="732"/>
      <point x="311" y="746"/>
      <point x="388" y="746" type="curve" smooth="yes"/>
      <point x="453" y="746"/>
      <point x="495" y="693"/>
    </contour>
    <component base="dda-beng"/>
  </outline>
</glyph>
<glyph name="au-beng" format="2">
  <advance width="750"/>
  <unicode hex="0994"/>
  <anchor x="510" y="41" name="bottom"/>
  <anchor x="558" y="-25" name="bottom.rakaar"/>
  <anchor x="477" y="86" name="bottom.rvocalic"/>
  <anchor x="445" y="31" name="bottom.virama"/>
  <anchor x="516" y="602" name="top"/>
  <anchor x="472" y="616" name="topright"/>
  <anchor x="375" y="0" name="vedic"/>
  <outline>
    <contour>
      <point x="571" y="355" type="line"/>
      <point x="639" y="415"/>
      <point x="680" y="476"/>
      <point x="680" y="562" type="curve" smooth="yes"/>
      <point x="680" y="691"/>
      <point x="592" y="730"/>
      <point x="450" y="743" type="curve" smooth="yes"/>
      <point x="338" y="753"/>
      <point x="244" y="764"/>
      <point x="244" y="869" type="curve" smooth="yes"/>
      <point x="244" y="901"/>
      <point x="251" y="923"/>
      <point x="263" y="944" type="curve"/>
      <point x="244" y="952" type="line"/>
      <point x="232" y="929"/>
      <point x="224" y="903"/>
      <point x="224" y="867" type="curve" smooth="yes"/>
      <point x="224" y="749"/>
      <point x="314" y="729"/>
      <point x="443" y="720" type="curve" smooth="yes"/>
      <point x="569" y="711"/>
      <point x="658" y="679"/>
      <point x="658" y="564" type="curve" smooth="yes"/>
      <point x="658" y="486"/>
      <point x="625" y="432"/>
      <point x="566" y="378" type="curve"/>
    </contour>
    <component base="o-beng"/>
  </outline>
</glyph>
<glyph name="nya-beng" format="2">
  <advance width="877"/>
  <unicode hex="099E"/>
  <anchor x="533" y="7" name="bottom"/>
  <anchor x="543" y="46" name="bottom.rakaar"/>
  <anchor x="543" y="2" name="bottom.rvocalic"/>
  <anchor x="533" y="-4" name="bottom.virama"/>
  <anchor x="482" y="602" name="top"/>
  <anchor x="485" y="602" name="topright"/>
  <anchor x="438" y="0" name="vedic"/>
  <outline>
    <contour>
      <point x="705" y="94" type="curve" smooth="yes"/>
      <point x="775" y="94"/>
      <point x="812" y="144"/>
      <point x="812" y="217" type="curve" smooth="yes"/>
      <point x="812" y="283"/>
      <point x="775" y="325"/>
      <point x="748" y="346" type="curve"/>
      <point x="750" y="335" type="line"/>
      <point x="778" y="363"/>
      <point x="807" y="410"/>
      <point x="807" y="481" type="curve" smooth="yes"/>
      <point x="807" y="542"/>
      <point x="778" y="596"/>
      <point x="714" y="596" type="curve" smooth="yes"/>
      <point x="615" y="596"/>
      <point x="543" y="448"/>
      <point x="535" y="379" type="curve"/>
      <point x="535" y="306" type="line"/>
      <point x="550" y="195"/>
      <point x="617" y="94"/>
    </contour>
    <contour>
      <point x="705" y="120" type="curve" smooth="yes"/>
      <point x="615" y="120"/>
      <point x="548" y="251"/>
      <point x="548" y="337" type="curve" smooth="yes"/>
      <point x="548" y="411"/>
      <point x="615" y="570"/>
      <point x="716" y="570" type="curve" smooth="yes"/>
      <point x="760" y="570"/>
      <point x="785" y="531"/>
      <point x="785" y="484" type="curve" smooth="yes"/>
      <point x="785" y="424"/>
      <point x="761" y="376"/>
      <point x="723" y="351" type="curve"/>
      <point x="741" y="352" type="line"/>
      <point x="719" y="372"/>
      <point x="702" y="378"/>
      <point x="683" y="378" type="curve" smooth="yes"/>
      <point x="659" y="378"/>
      <point x="640" y="364"/>
      <point x="640" y="338" type="curve" smooth="yes"/>
      <point x="640" y="311"/>
      <point x="658" y="299"/>
      <point x="684" y="299" type="curve" smooth="yes"/>
      <point x="707" y="299"/>
      <point x="726" y="309"/>
      <point x="745" y="329" type="curve"/>
      <point x="726" y="336" type="line"/>
      <point x="756" y="315"/>
      <point x="790" y="284"/>
      <point x="790" y="219" type="curve" smooth="yes"/>
      <point x="790" y="153"/>
      <point x="756" y="120"/>
    </contour>
    <component base="e-beng"/>
  </outline>
</glyph>
<glyph name="nukta-beng" format="2">
  <unicode hex="09BC"/>
  <anchor x="0" y="-105" name="_nukta"/>
  <outline>
    <contour>
      <point x="0" y="-144" type="curve" smooth="yes"/>
      <point x="23" y="-144"/>
      <point x="42" y="-128"/>
      <point x="42" y="-104" type="curve" smooth="yes"/>
      <point x="42" y="-79"/>
      <point x="23" y="-63"/>
      <point x="0" y="-63" type="curve" smooth="yes"/>
      <point x="-23" y="-63"/>
      <point x="-42" y="-79"/>
      <point x="-42" y="-104" type="curve" smooth="yes"/>
      <point x="-42" y="-128"/>
      <point x="-23" y="-144"/>
    </contour>
  </outline>
</glyph>
<glyph name="taKhanda-beng" format="2">
  <advance width="530"/>
  <unicode hex="09CE"/>
  <anchor x="294" y="602" name="top"/>
  <anchor x="254" y="602" name="topright"/>
  <outline>
    <contour>
      <point x="467" y="-12" type="line"/>
      <point x="480" y="15"/>
      <point x="490" y="48"/>
      <point x="490" y="79" type="curve" smooth="yes"/>
      <point x="490" y="148"/>
      <point x="449" y="190"/>
      <point x="302" y="227" type="curve" smooth="yes"/>
      <point x="164" y="262"/>
      <point x="103" y="318"/>
      <point x="103" y="402" type="curve" smooth="yes"/>
      <point x="103" y="521"/>
      <point x="188" y="577"/>
      <point x="269" y="577" type="curve" smooth="yes"/>
      <point x="345" y="577"/>
      <point x="368" y="538"/>
      <point x="368" y="494" type="curve" smooth="yes"/>
      <point x="368" y="440"/>
      <point x="341" y="404"/>
      <point x="295" y="404" type="curve" smooth="yes"/>
      <point x="246" y="404"/>
      <point x="204" y="441"/>
      <point x="177" y="561" type="curve"/>
      <point x="158" y="555" type="line"/>
      <point x="180" y="441"/>
      <point x="222" y="377"/>
      <point x="296" y="377" type="curve" smooth="yes"/>
      <point x="357" y="377"/>
      <point x="391" y="429"/>
      <point x="391" y="495" type="curve" smooth="yes"/>
      <point x="391" y="558"/>
      <point x="353" y="602"/>
      <point x="271" y="602" type="curve" smooth="yes"/>
      <point x="145" y="602"/>
      <point x="80" y="504"/>
      <point x="80" y="403" type="curve" smooth="yes"/>
      <point x="80" y="302"/>
      <point x="145" y="241"/>
      <point x="290" y="205" type="curve" smooth="yes"/>
      <point x="420" y="173"/>
      <point x="469" y="141"/>
      <point x="469" y="79" type="curve" smooth="yes"/>
      <point x="469" y="49"/>
      <point x="458" y="17"/>
      <point x="448" y="-3" type="curve"/>
    </contour>
  </outline>
</glyph>
<glyph name="four-beng" format="2">
  <advance width="554"/>
  <unicode hex="09EA"/>
  <outline>
    <contour>
      <point x="273" y="26" type="curve" smooth="yes"/>
      <point x="399" y="26"/>
      <point x="459" y="96"/>
      <point x="459" y="176" type="curve" smooth="yes"/>
      <point x="459" y="254"/>
      <point x="399" y="305"/>
      <point x="311" y="342" type="curve"/>
      <point x="294" y="331" type="line"/>
      <point x="363" y="298"/>
      <point x="435" y="257"/>
      <point x="435" y="180" type="curve" smooth="yes"/>
      <point x="435" y="95"/>
      <point x="366" y="48"/>
      <point x="275" y="48" type="curve" smooth="yes"/>
      <point x="183" y="48"/>
      <point x="117" y="94"/>
      <point x="117" y="161" type="curve" smooth="yes"/>
      <point x="117" y="226"/>
      <point x="156" y="264"/>
      <point x="279" y="319" type="curve" smooth="yes"/>
      <point x="375" y="362"/>
      <point x="439" y="399"/>
      <point x="439" y="480" type="curve" smooth="yes"/>
      <point x="439" y="560"/>
      <point x="367" y="603"/>
      <point x="281" y="603" type="curve" smooth="yes"/>
      <point x="172" y="603"/>
      <point x="114" y="543"/>
      <point x="114" y="474" type="curve" smooth="yes"/>
      <point x="114" y="395"/>
      <point x="185" y="348"/>
      <point x="240" y="316" type="curve"/>
      <point x="256" y="327" type="line"/>
      <point x="174" y="374"/>
      <point x="138" y="420"/>
      <point x="138" y="472" type="curve" smooth="yes"/>
      <point x="138" y="538"/>
      <point x="197" y="582"/>
      <point x="281" y="582" type="curve" smooth="yes"/>
      <point x="370" y="582"/>
      <point x="417" y="538"/>
      <point x="417" y="487" type="curve" smooth="yes"/>
      <point x="417" y="427"/>
      <point x="373" y="388"/>
      <point x="262" y="339" type="curve" smooth="yes"/>
      <point x="167" y="297"/>
      <point x="95" y="257"/>
      <point x="95" y="169" type="curve" smooth="yes"/>
      <point x="95" y="68"/>
      <point x="188" y="26"/>
    </contour>
  </outline>
</glyph>
<glyph name="six-beng" format="2">
  <advance width="659"/>
  <unicode hex="09EC"/>
  <outline>
    <contour>
      <point x="378" y="49" type="curve" smooth="yes"/>
      <point x="507" y="49"/>
      <point x="579" y="137"/>
      <point x="579" y="261" type="curve" smooth="yes"/>
      <point x="579" y="343"/>
      <point x="553" y="393"/>
      <point x="525" y="423" type="curve"/>
      <point x="477" y="361"/>
      <point x="419" y="299"/>
      <point x="362" y="299" type="curve" smooth="yes"/>
      <point x="326" y="299"/>
      <point x="309" y="315"/>
      <point x="309" y="349" type="curve" smooth="yes"/>
      <point x="309" y="578" type="line" smooth="yes"/>
      <point x="309" y="609"/>
      <point x="292" y="627"/>
      <point x="264" y="627" type="curve" smooth="yes"/>
      <point x="242" y="627"/>
      <point x="226" y="612"/>
      <point x="226" y="590" type="curve" smooth="yes"/>
      <point x="226" y="565"/>
      <point x="242" y="551"/>
      <point x="264" y="551" type="curve" smooth="yes"/>
      <point x="287" y="551"/>
      <point x="295" y="563"/>
      <point x="297" y="578" type="curve"/>
      <point x="286" y="580" type="line"/>
      <point x="286" y="345" type="line" smooth="yes"/>
      <point x="286" y="313"/>
      <point x="301" y="296"/>
      <point x="314" y="287" type="curve" smooth="yes"/>
      <point x="328" y="278"/>
      <point x="344" y="275"/>
      <point x="362" y="275" type="curve" smooth="yes"/>
      <point x="419" y="275"/>
      <point x="475" y="322"/>
      <point x="533" y="392" type="curve"/>
      <point x="518" y="401" type="line"/>
      <point x="537" y="378"/>
      <point x="557" y="338"/>
      <point x="557" y="268" type="curve" smooth="yes"/>
      <point x="557" y="140"/>
      <point x="482" y="75"/>
      <point x="378" y="75" type="curve" smooth="yes"/>
      <point x="199" y="75"/>
      <point x="127" y="267"/>
      <point x="79" y="479" type="curve"/>
      <point x="60" y="474" type="line"/>
      <point x="116" y="210"/>
      <point x="208" y="49"/>
    </contour>
  </outline>
</glyph>
<glyph name="seven-beng" format="2">
  <advance width="514"/>
  <unicode hex="09ED"/>
  <outline>
    <contour>
      <point x="414" y="22" type="curve" smooth="yes"/>
      <point x="436" y="22"/>
      <point x="452" y="37"/>
      <point x="452" y="59" type="curve" smooth="yes"/>
      <point x="452" y="84"/>
      <point x="436" y="98"/>
      <point x="414" y="98" type="curve" smooth="yes"/>
      <point x="391" y="98"/>
      <point x="383" y="86"/>
      <point x="381" y="71" type="curve"/>
      <point x="392" y="69" type="line"/>
      <point x="392" y="506" type="line" smooth="yes"/>
      <point x="392" y="576"/>
      <point x="354" y="626"/>
      <point x="269" y="626" type="curve" smooth="yes"/>
      <point x="164" y="626"/>
      <point x="75" y="547"/>
      <point x="75" y="437" type="curve" smooth="yes"/>
      <point x="75" y="308"/>
      <point x="176" y="268"/>
      <point x="247" y="268" type="curve" smooth="yes"/>
      <point x="312" y="268"/>
      <point x="356" y="292"/>
      <point x="383" y="312" type="curve"/>
      <point x="383" y="348" type="line"/>
      <point x="367" y="328"/>
      <point x="317" y="293"/>
      <point x="247" y="293" type="curve" smooth="yes"/>
      <point x="151" y="293"/>
      <point x="99" y="352"/>
      <point x="99" y="428" type="curve" smooth="yes"/>
      <point x="99" y="536"/>
      <point x="181" y="602"/>
      <point x="275" y="602" type="curve" smooth="yes"/>
      <point x="335" y="602"/>
      <point x="369" y="567"/>
      <point x="369" y="500" type="curve" smooth="yes"/>
      <point x="369" y="71" type="line" smooth="yes"/>
      <point x="369" y="40"/>
      <point x="386" y="22"/>
    </contour>
  </outline>
</glyph>
<glyph name="eight-beng" format="2">
  <advance width="539"/>
  <unicode hex="09EE"/>
  <outline>
    <contour>
      <point x="230" y="30" type="curve" smooth="yes"/>
      <point x="317" y="30"/>
      <point x="414" y="123"/>
      <point x="414" y="236" type="curve" smooth="yes"/>
      <point x="414" y="277"/>
      <point x="397" y="315"/>
      <point x="355" y="363" type="curve"/>
      <point x="335" y="363" type="line"/>
      <point x="374" y="315"/>
      <point x="391" y="277"/>
      <point x="391" y="238" type="curve" smooth="yes"/>
      <point x="391" y="144"/>
      <point x="310" y="54"/>
      <point x="225" y="54" type="curve" smooth="yes"/>
      <point x="182" y="54"/>
      <point x="158" y="86"/>
      <point x="158" y="130" type="curve" smooth="yes"/>
      <point x="158" y="578" type="line" smooth="yes"/>
      <point x="158" y="609"/>
      <point x="141" y="627"/>
      <point x="113" y="627" type="curve" smooth="yes"/>
      <point x="91" y="627"/>
      <point x="75" y="612"/>
      <point x="75" y="590" type="curve" smooth="yes"/>
      <point x="75" y="565"/>
      <point x="91" y="551"/>
      <point x="113" y="551" type="curve" smooth="yes"/>
      <point x="136" y="551"/>
      <point x="144" y="563"/>
      <point x="146" y="578" type="curve"/>
      <point x="135" y="580" type="line"/>
      <point x="135" y="131" type="line" smooth="yes"/>
      <point x="135" y="77"/>
      <point x="162" y="30"/>
    </contour>
    <contour>
      <point x="145" y="319" type="line"/>
      <point x="190" y="344"/>
      <point x="238" y="365"/>
      <point x="290" y="365" type="curve" smooth="yes"/>
      <point x="382" y="365"/>
      <point x="398" y="324"/>
      <point x="459" y="324" type="curve" smooth="yes"/>
      <point x="492" y="324"/>
      <point x="510" y="348"/>
      <point x="519" y="395" type="curve"/>
      <point x="503" y="399" type="line"/>
      <point x="495" y="376"/>
      <point x="483" y="351"/>
      <point x="453" y="351" type="curve" smooth="yes"/>
      <point x="404" y="351"/>
      <point x="367" y="388"/>
      <point x="285" y="388" type="curve" smooth="yes"/>
      <point x="238" y="388"/>
      <point x="187" y="371"/>
      <point x="145" y="351" type="curve"/>
    </contour>
  </outline>
</glyph>
<glyph name="oneNumr-beng" format="2">
  <advance width="412"/>
  <unicode hex="09F4"/>
  <outline>
    <contour>
      <point x="49" y="23" type="line"/>
      <point x="159" y="121"/>
      <point x="302" y="269"/>
      <point x="372" y="546" type="curve"/>
      <point x="351" y="551" type="line"/>
      <point x="287" y="299"/>
      <point x="141" y="129"/>
      <point x="20" y="37" type="curve"/>
    </contour>
  </outline>
</glyph>
<glyph name="threeNumr-beng" format="2">
  <advance width="623"/>
  <unicode hex="09F6"/>
  <outline>
    <contour>
      <point x="195" y="46" type="curve" smooth="yes"/>
      <point x="297" y="46"/>
      <point x="444" y="157"/>
      <point x="548" y="612" type="curve"/>
      <point x="530" y="617" type="line"/>
      <point x="453" y="281"/>
      <point x="324" y="68"/>
      <point x="190" y="68" type="curve" smooth="yes"/>
      <point x="145" y="68"/>
      <point x="103" y="94"/>
      <point x="103" y="131" type="curve" smooth="yes"/>
      <point x="103" y="168"/>
      <point x="128" y="182"/>
      <point x="203" y="211" type="curve" smooth="yes"/>
      <point x="286" y="243"/>
      <point x="310" y="277"/>
      <point x="310" y="327" type="curve" smooth="yes"/>
      <point x="310" y="392"/>
      <point x="253" y="435"/>
      <point x="189" y="435" type="curve" smooth="yes"/>
      <point x="124" y="435"/>
      <point x="83" y="396"/>
      <point x="83" y="351" type="curve" smooth="yes"/>
      <point x="83" y="319"/>
      <point x="102" y="298"/>
      <point x="130" y="298" type="curve" smooth="yes"/>
      <point x="155" y="298"/>
      <point x="173" y="314"/>
      <point x="173" y="341" type="curve" smooth="yes"/>
      <point x="173" y="364"/>
      <point x="157" y="387"/>
      <point x="120" y="383" type="curve"/>
      <point x="124" y="370" type="line"/>
      <point x="129" y="388"/>
      <point x="147" y="412"/>
      <point x="198" y="412" type="curve" smooth="yes"/>
      <point x="255" y="412"/>
      <point x="289" y="372"/>
      <point x="289" y="330" type="curve" smooth="yes"/>
      <point x="289" y="291"/>
      <point x="269" y="260"/>
      <point x="188" y="230" type="curve" smooth="yes"/>
      <point x="107" y="200"/>
      <point x="79" y="180"/>
      <point x="79" y="135" type="curve" smooth="yes"/>
      <point x="79" y="84"/>
      <point x="127" y="46"/>
    </contour>
  </outline>
</glyph>
<glyph name="uni09FC" format="2">
  <advance width="471"/>
  <unicode hex="09FC"/>
  <anchor x="-184" y="0" name="vedic"/>
  <outline>
    <contour>
      <point x="237" y="290" type="curve" smooth="yes"/>
      <point x="334" y="290"/>
      <point x="387" y="359"/>
      <point x="406" y="455" type="curve"/>
      <point x="388" y="463" type="line"/>
      <point x="362" y="360"/>
      <point x="317" y="312"/>
      <point x="238" y="312" type="curve" smooth="yes"/>
      <point x="159" y="312"/>
      <point x="114" y="359"/>
      <point x="84" y="462" type="curve"/>
      <point x="66" y="455" type="line"/>
      <point x="92" y="355"/>
      <point x="144" y="290"/>
    </contour>
    <contour>
      <point x="238" y="422" type="curve" smooth="yes"/>
      <point x="258" y="422"/>
      <point x="276" y="435"/>
      <point x="276" y="460" type="curve" smooth="yes"/>
      <point x="276" y="484"/>
      <point x="259" y="499"/>
      <point x="238" y="499" type="curve" smooth="yes"/>
      <point x="215" y="499"/>
      <point x="197" y="485"/>
      <point x="197" y="460" type="curve" smooth="yes"/>
      <point x="197" y="435"/>
      <point x="216" y="422"/>
    </contour>
    <contour>
      <point x="390" y="-8" type="curve"/>
      <point x="403" y="5" type="line"/>
      <point x="364" y="51"/>
      <point x="298" y="117"/>
      <point x="205" y="147" type="curve"/>
      <point x="197" y="125" type="line"/>
      <point x="300" y="91"/>
      <point x="355" y="27"/>
    </contour>
  </outline>
</glyph>
<glyph name="uni1CD6" format="2">
  <unicode hex="1CD6"/>
  <note>
uni1CD6
</note>
  <anchor x="-299" y="340" name="_vedic"/>
  <outline>
    <contour>
      <point x="-445" y="-271" type="line"/>
      <point x="-135" y="-271" type="line"/>
      <point x="-149" y="-251" type="line"/>
      <point x="-438" y="-251" type="line"/>
      <point x="-438" y="-95" type="line"/>
      <point x="-458" y="-80" type="line"/>
      <point x="-458" y="-254" type="line"/>
    </contour>
  </outline>
</glyph>
<glyph name="rupeeIndian" format="2">
  <advance width="559"/>
  <unicode hex="20B9"/>
  <outline>
    <contour>
      <point x="392" y="5" type="curve" smooth="yes"/>
      <point x="414" y="5" type="line"/>
      <point x="414" y="33" type="line"/>
      <point x="391" y="33" type="line" smooth="yes"/>
      <point x="339" y="33"/>
      <point x="309" y="62"/>
      <point x="275" y="113" type="curve" smooth="yes"/>
      <point x="130" y="331" type="line"/>
      <point x="327" y="331"/>
      <point x="391" y="417"/>
      <point x="396" y="516" type="curve"/>
      <point x="490" y="516" type="line"/>
      <point x="490" y="541" type="line"/>
      <point x="395" y="541" type="line"/>
      <point x="393" y="602"/>
      <point x="357" y="677"/>
      <point x="296" y="694" type="curve"/>
      <point x="490" y="694" type="line"/>
      <point x="490" y="719" type="line"/>
      <point x="79" y="719" type="line"/>
      <point x="79" y="694" type="line"/>
      <point x="179" y="694" type="line" smooth="yes"/>
      <point x="335" y="694"/>
      <point x="361" y="601"/>
      <point x="367" y="541" type="curve"/>
      <point x="79" y="541" type="line"/>
      <point x="79" y="516" type="line"/>
      <point x="368" y="516" type="line"/>
      <point x="366" y="428"/>
      <point x="299" y="356"/>
      <point x="141" y="356" type="curve" smooth="yes"/>
      <point x="85" y="356" type="line"/>
      <point x="85" y="351" type="line"/>
      <point x="248" y="101" type="line" smooth="yes"/>
      <point x="283" y="47"/>
      <point x="325" y="5"/>
    </contour>
  </outline>
</glyph>
<glyph name="aiMatra-beng.init" format="2">
  <advance width="362"/>
  <outline>
    <contour>
      <point x="330" y="618" type="curve"/>
      <point x="349" y="618" type="line"/>
      <point x="342" y="720"/>
      <point x="301" y="769"/>
      <point x="230" y="769" type="curve" smooth="yes"/>
      <point x="178" y="769"/>
      <point x="139" y="756"/>
      <point x="79" y="756" type="curve" smooth="yes"/>
      <point x="15" y="756"/>
      <point x="-11" y="783"/>
      <point x="-11" y="861" type="curve" smooth="yes"/>
      <point x="-11" y="872"/>
      <point x="-10" y="885"/>
      <point x="-8" y="898" type="curve"/>
      <point x="-26" y="900" type="line"/>
      <point x="-28" y="890"/>
      <point x="-30" y="871"/>
      <point x="-30" y="856" type="curve" smooth="yes"/>
      <point x="-30" y="767"/>
      <point x="9" y="734"/>
      <point x="79" y="734" type="curve" smooth="yes"/>
      <point x="140" y="734"/>
      <point x="170" y="747"/>
      <point x="236" y="747" type="curve" smooth="yes"/>
      <point x="297" y="747"/>
      <point x="325" y="693"/>
    </contour>
    <component base="eMatra-beng.init"/>
  </outline>
</glyph>
<glyph name="b-beng" format="2">
  <advance width="442"/>
  <outline>
    <contour>
      <point x="338" y="169" type="line"/>
      <point x="341" y="169" type="line"/>
      <point x="341" y="602" type="line"/>
      <point x="461" y="602" type="line"/>
      <point x="447" y="622" type="line"/>
      <point x="-19" y="622" type="line"/>
      <point x="-5" y="602" type="line"/>
      <point x="318" y="602" type="line"/>
      <point x="318" y="531" type="line"/>
      <point x="325" y="543" type="line"/>
      <point x="228" y="517"/>
      <point x="136" y="470"/>
      <point x="39" y="407" type="curve"/>
      <point x="52" y="377" type="line"/>
      <point x="173" y="345"/>
      <point x="260" y="279"/>
      <point x="321" y="181" type="curve"/>
    </contour>
    <contour>
      <point x="318" y="200" type="line"/>
      <point x="324" y="208" type="line"/>
      <point x="268" y="300"/>
      <point x="178" y="366"/>
      <point x="64" y="400" type="curve"/>
      <point x="65" y="392" type="line"/>
      <point x="162" y="456"/>
      <point x="257" y="499"/>
      <point x="324" y="516" type="curve"/>
      <point x="318" y="523" type="line"/>
    </contour>
  </outline>
</glyph>
<glyph name="c-beng" format="2">
  <advance width="400"/>
  <outline>
    <contour>
      <point x="170" y="184" type="curve" smooth="yes"/>
      <point x="269" y="184"/>
      <point x="346" y="312"/>
      <point x="346" y="416" type="curve" smooth="yes"/>
      <point x="346" y="433"/>
      <point x="332" y="445"/>
      <point x="326" y="449" type="curve"/>
      <point x="223" y="455"/>
      <point x="153" y="505"/>
      <point x="107" y="589" type="curve"/>
      <point x="103" y="568" type="line"/>
      <point x="140" y="483"/>
      <point x="225" y="429"/>
      <point x="331" y="422" type="curve"/>
      <point x="322" y="432" type="line"/>
      <point x="325" y="319"/>
      <point x="247" y="208"/>
      <point x="169" y="208" type="curve" smooth="yes"/>
      <point x="134" y="208"/>
      <point x="111" y="230"/>
      <point x="111" y="261" type="curve" smooth="yes"/>
      <point x="111" y="612" type="line"/>
      <point x="88" y="612" type="line"/>
      <point x="88" y="258" type="line" smooth="yes"/>
      <point x="88" y="214"/>
      <point x="123" y="184"/>
    </contour>
    <contour>
      <point x="-6" y="602" type="line"/>
      <point x="419" y="602" type="line"/>
      <point x="406" y="622" type="line"/>
      <point x="-19" y="622" type="line"/>
    </contour>
  </outline>
</glyph>
<glyph name="ddh-beng" format="2">
  <advance width="400"/>
  <outline>
    <contour>
      <point x="165" y="204" type="curve" smooth="yes"/>
      <point x="255" y="204"/>
      <point x="344" y="318"/>
      <point x="344" y="419" type="curve" smooth="yes"/>
      <point x="344" y="456"/>
      <point x="325" y="479"/>
      <point x="294" y="479" type="curve" smooth="yes"/>
      <point x="266" y="479"/>
      <point x="251" y="459"/>
      <point x="251" y="438" type="curve" smooth="yes"/>
      <point x="251" y="414"/>
      <point x="267" y="397"/>
      <point x="292" y="397" type="curve" smooth="yes"/>
      <point x="309" y="397"/>
      <point x="319" y="404"/>
      <point x="327" y="419" type="curve"/>
      <point x="319" y="424" type="line"/>
      <point x="317" y="320"/>
      <point x="235" y="227"/>
      <point x="166" y="227" type="curve" smooth="yes"/>
      <point x="131" y="227"/>
      <point x="111" y="249"/>
      <point x="111" y="279" type="curve" smooth="yes"/>
      <point x="111" y="602" type="line"/>
      <point x="419" y="602" type="line"/>
      <point x="407" y="622" type="line"/>
      <point x="-19" y="622" type="line"/>
      <point x="-6" y="602" type="line"/>
      <point x="88" y="602" type="line"/>
      <point x="88" y="277" type="line" smooth="yes"/>
      <point x="88" y="234"/>
      <point x="119" y="204"/>
    </contour>
  </outline>
</glyph>
<glyph name="ddhNukta_ba-beng" format="2">
  <advance width="404"/>
  <anchor x="304" y="-112" name="bottom"/>
  <anchor x="314" y="-73" name="bottom.rakaar"/>
  <anchor x="314" y="-117" name="bottom.rvocalic"/>
  <anchor x="304" y="-123" name="bottom.virama"/>
  <anchor x="111" y="602" name="top"/>
  <anchor x="114" y="602" name="topright"/>
  <outline>
    <contour>
      <point x="165" y="244" type="curve" smooth="yes"/>
      <point x="255" y="244"/>
      <point x="354" y="348"/>
      <point x="354" y="449" type="curve" smooth="yes"/>
      <point x="354" y="486"/>
      <point x="335" y="509"/>
      <point x="304" y="509" type="curve" smooth="yes"/>
      <point x="276" y="509"/>
      <point x="261" y="489"/>
      <point x="261" y="468" type="curve" smooth="yes"/>
      <point x="261" y="444"/>
      <point x="277" y="427"/>
      <point x="302" y="427" type="curve" smooth="yes"/>
      <point x="319" y="427"/>
      <point x="329" y="434"/>
      <point x="337" y="449" type="curve"/>
      <point x="329" y="454" type="line"/>
      <point x="327" y="350"/>
      <point x="235" y="267"/>
      <point x="166" y="267" type="curve" smooth="yes"/>
      <point x="131" y="267"/>
      <point x="111" y="289"/>
      <point x="111" y="319" type="curve" smooth="yes"/>
      <point x="111" y="602" type="line"/>
      <point x="423" y="602" type="line"/>
      <point x="411" y="622" type="line"/>
      <point x="-19" y="622" type="line"/>
      <point x="-6" y="602" type="line"/>
      <point x="88" y="602" type="line"/>
      <point x="88" y="317" type="line" smooth="yes"/>
      <point x="88" y="274"/>
      <point x="119" y="244"/>
    </contour>
    <contour>
      <point x="114" y="126" type="curve" smooth="yes"/>
      <point x="136" y="126"/>
      <point x="155" y="142"/>
      <point x="155" y="166" type="curve" smooth="yes"/>
      <point x="155" y="191"/>
      <point x="136" y="207"/>
      <point x="114" y="207" type="curve" smooth="yes"/>
      <point x="91" y="207"/>
      <point x="72" y="191"/>
      <point x="72" y="166" type="curve" smooth="yes"/>
      <point x="72" y="142"/>
      <point x="91" y="126"/>
    </contour>
    <contour>
      <point x="311" y="-126" type="line"/>
      <point x="314" y="-125" type="line"/>
      <point x="314" y="354" type="line"/>
      <point x="291" y="335" type="line"/>
      <point x="291" y="-92" type="line"/>
      <point x="299" y="-82" type="line"/>
      <point x="238" y="-12"/>
      <point x="184" y="20"/>
      <point x="100" y="46" type="curve"/>
      <point x="100" y="38" type="line"/>
      <point x="181" y="98"/>
      <point x="252" y="126"/>
      <point x="299" y="149" type="curve"/>
      <point x="301" y="176" type="line"/>
      <point x="216" y="141"/>
      <point x="148" y="104"/>
      <point x="73" y="51" type="curve"/>
      <point x="87" y="23" type="line"/>
      <point x="176" y="1"/>
      <point x="232" y="-34"/>
      <point x="296" y="-112" type="curve"/>
    </contour>
  </outline>
</glyph>
<glyph name="ddhNukta_ra-beng" format="2">
  <advance width="414"/>
  <anchor x="321" y="-18" name="bottom"/>
  <anchor x="331" y="-23" name="bottom.rvocalic"/>
  <anchor x="321" y="-25" name="bottom.virama"/>
  <anchor x="121" y="602" name="top"/>
  <anchor x="124" y="602" name="topright"/>
  <outline>
    <contour>
      <point x="175" y="244" type="curve" smooth="yes"/>
      <point x="265" y="244"/>
      <point x="364" y="348"/>
      <point x="364" y="449" type="curve" smooth="yes"/>
      <point x="364" y="486"/>
      <point x="345" y="509"/>
      <point x="314" y="509" type="curve" smooth="yes"/>
      <point x="286" y="509"/>
      <point x="271" y="489"/>
      <point x="271" y="468" type="curve" smooth="yes"/>
      <point x="271" y="444"/>
      <point x="287" y="427"/>
      <point x="312" y="427" type="curve" smooth="yes"/>
      <point x="329" y="427"/>
      <point x="339" y="434"/>
      <point x="347" y="449" type="curve"/>
      <point x="339" y="454" type="line"/>
      <point x="337" y="350"/>
      <point x="245" y="267"/>
      <point x="176" y="267" type="curve" smooth="yes"/>
      <point x="141" y="267"/>
      <point x="121" y="289"/>
      <point x="121" y="319" type="curve" smooth="yes"/>
      <point x="121" y="602" type="line"/>
      <point x="433" y="602" type="line"/>
      <point x="421" y="622" type="line"/>
      <point x="-19" y="622" type="line"/>
      <point x="-6" y="602" type="line"/>
      <point x="98" y="602" type="line"/>
      <point x="98" y="317" type="line" smooth="yes"/>
      <point x="98" y="274"/>
      <point x="129" y="244"/>
    </contour>
    <contour>
      <point x="328" y="-32" type="line"/>
      <point x="331" y="-31" type="line"/>
      <point x="331" y="380" type="line"/>
      <point x="308" y="347" type="line"/>
      <point x="308" y="150" type="line" smooth="yes"/>
      <point x="308" y="113"/>
      <point x="309" y="55"/>
      <point x="312" y="22" type="curve"/>
      <point x="288" y="65"/>
      <point x="259" y="74"/>
      <point x="232" y="74" type="curve" smooth="yes"/>
      <point x="194" y="74"/>
      <point x="167" y="64"/>
      <point x="123" y="64" type="curve" smooth="yes"/>
      <point x="62" y="64"/>
      <point x="43" y="100"/>
      <point x="43" y="146" type="curve" smooth="yes"/>
      <point x="43" y="176"/>
      <point x="49" y="200"/>
      <point x="57" y="221" type="curve"/>
      <point x="38" y="227" type="line"/>
      <point x="30" y="203"/>
      <point x="22" y="179"/>
      <point x="22" y="138" type="curve" smooth="yes"/>
      <point x="22" y="66"/>
      <point x="61" y="38"/>
      <point x="119" y="38" type="curve" smooth="yes"/>
      <point x="169" y="38"/>
      <point x="183" y="48"/>
      <point x="238" y="48" type="curve" smooth="yes"/>
      <point x="264" y="48"/>
      <point x="292" y="38"/>
      <point x="313" y="-18" type="curve"/>
    </contour>
    <contour>
      <point x="190" y="123" type="curve" smooth="yes"/>
      <point x="212" y="123"/>
      <point x="231" y="139"/>
      <point x="231" y="163" type="curve" smooth="yes"/>
      <point x="231" y="188"/>
      <point x="212" y="204"/>
      <point x="190" y="204" type="curve" smooth="yes"/>
      <point x="167" y="204"/>
      <point x="148" y="188"/>
      <point x="148" y="163" type="curve" smooth="yes"/>
      <point x="148" y="139"/>
      <point x="167" y="123"/>
    </contour>
  </outline>
</glyph>
<glyph name="g-beng" format="2">
  <advance width="362"/>
  <outline>
    <contour>
      <point x="176" y="242" type="line"/>
      <point x="234" y="283"/>
      <point x="282" y="339"/>
      <point x="282" y="412" type="curve" smooth="yes"/>
      <point x="282" y="471"/>
      <point x="246" y="512"/>
      <point x="189" y="512" type="curve" smooth="yes"/>
      <point x="138" y="512"/>
      <point x="92" y="489"/>
      <point x="59" y="462" type="curve"/>
      <point x="65" y="457" type="line"/>
      <point x="112" y="560"/>
      <point x="170" y="607"/>
      <point x="237" y="607" type="curve" smooth="yes"/>
      <point x="326" y="607"/>
      <point x="395" y="515"/>
      <point x="443" y="395" type="curve"/>
      <point x="460" y="405" type="line"/>
      <point x="410" y="539"/>
      <point x="335" y="631"/>
      <point x="234" y="631" type="curve" smooth="yes"/>
      <point x="144" y="631"/>
      <point x="80" y="561"/>
      <point x="35" y="461" type="curve"/>
      <point x="60" y="440" type="line"/>
      <point x="100" y="467"/>
      <point x="138" y="487"/>
      <point x="187" y="487" type="curve" smooth="yes"/>
      <point x="237" y="487"/>
      <point x="258" y="451"/>
      <point x="258" y="415" type="curve" smooth="yes"/>
      <point x="258" y="362"/>
      <point x="229" y="310"/>
      <point x="155" y="267" type="curve"/>
    </contour>
  </outline>
</glyph>
<glyph name="iMatra-beng.wide2" format="2">
  <advance width="219"/>
  <anchor x="769" y="627" name="top"/>
  <anchor x="622" y="562" name="topright"/>
  <outline>
    <contour>
      <point x="118" y="-10" type="line"/>
      <point x="121" y="-9" type="line"/>
      <point x="121" y="602" type="line"/>
      <point x="239" y="602" type="line"/>
      <point x="225" y="622" type="line"/>
      <point x="118" y="622" type="line"/>
      <point x="101" y="643"/>
      <point x="67" y="682"/>
      <point x="55" y="700" type="curve"/>
      <point x="90" y="769"/>
      <point x="201" y="857"/>
      <point x="348" y="857" type="curve" smooth="yes"/>
      <point x="486" y="857"/>
      <point x="659" y="800"/>
      <point x="781" y="688" type="curve"/>
      <point x="794" y="703" type="line"/>
      <point x="678" y="812"/>
      <point x="494" y="880"/>
      <point x="347" y="880" type="curve" smooth="yes"/>
      <point x="207" y="880"/>
      <point x="92" y="812"/>
      <point x="26" y="702" type="curve"/>
      <point x="44" y="680"/>
      <point x="73" y="647"/>
      <point x="94" y="622" type="curve"/>
      <point x="-19" y="622" type="line"/>
      <point x="-5" y="602" type="line"/>
      <point x="98" y="602" type="line"/>
      <point x="98" y="3" type="line"/>
    </contour>
  </outline>
</glyph>
<glyph name="m-beng" format="2">
  <advance width="552"/>
  <outline>
    <contour>
      <point x="401" y="373" type="curve" smooth="yes"/>
      <point x="468" y="373"/>
      <point x="490" y="421"/>
      <point x="490" y="479" type="curve" smooth="yes"/>
      <point x="490" y="525"/>
      <point x="472" y="575"/>
      <point x="424" y="616" type="curve"/>
      <point x="403" y="611" type="line"/>
      <point x="443" y="580"/>
      <point x="468" y="533"/>
      <point x="468" y="482" type="curve" smooth="yes"/>
      <point x="468" y="439"/>
      <point x="452" y="396"/>
      <point x="400" y="396" type="curve" smooth="yes"/>
      <point x="316" y="396"/>
      <point x="285" y="504"/>
      <point x="151" y="504" type="curve" smooth="yes"/>
      <point x="105" y="504"/>
      <point x="90" y="479"/>
      <point x="90" y="452" type="curve" smooth="yes"/>
      <point x="90" y="427"/>
      <point x="104" y="407"/>
      <point x="136" y="407" type="curve" smooth="yes"/>
      <point x="169" y="407"/>
      <point x="187" y="433"/>
      <point x="187" y="474" type="curve" smooth="yes"/>
      <point x="187" y="520"/>
      <point x="158" y="583"/>
      <point x="90" y="610" type="curve"/>
      <point x="35" y="608" type="line"/>
      <point x="136" y="587"/>
      <point x="163" y="523"/>
      <point x="163" y="493" type="curve"/>
      <point x="175" y="478" type="line"/>
      <point x="275" y="478"/>
      <point x="302" y="373"/>
    </contour>
    <contour>
      <point x="-5" y="602" type="line"/>
      <point x="571" y="602" type="line"/>
      <point x="557" y="622" type="line"/>
      <point x="-19" y="622" type="line"/>
    </contour>
  </outline>
</glyph>
<glyph name="ng-beng" format="2">
  <advance width="462"/>
  <outline>
    <contour>
      <point x="284" y="196" type="curve" smooth="yes"/>
      <point x="387" y="196"/>
      <point x="437" y="262"/>
      <point x="437" y="339" type="curve" smooth="yes"/>
      <point x="437" y="399"/>
      <point x="417" y="437"/>
      <point x="394" y="462" type="curve"/>
      <point x="354" y="414"/>
      <point x="296" y="365"/>
      <point x="247" y="365" type="curve" smooth="yes"/>
      <point x="223" y="365"/>
      <point x="210" y="377"/>
      <point x="210" y="398" type="curve" smooth="yes"/>
      <point x="210" y="519" type="line" smooth="yes"/>
      <point x="210" y="579"/>
      <point x="241" y="606"/>
      <point x="280" y="606" type="curve" smooth="yes"/>
      <point x="314" y="606"/>
      <point x="335" y="587"/>
      <point x="335" y="548" type="curve" smooth="yes"/>
      <point x="335" y="512"/>
      <point x="319" y="482"/>
      <point x="261" y="482" type="curve" smooth="yes"/>
      <point x="186" y="482"/>
      <point x="140" y="530"/>
      <point x="106" y="617" type="curve"/>
      <point x="87" y="610" type="line"/>
      <point x="106" y="558"/>
      <point x="153" y="460"/>
      <point x="260" y="460" type="curve" smooth="yes"/>
      <point x="335" y="460"/>
      <point x="358" y="506"/>
      <point x="358" y="545" type="curve" smooth="yes"/>
      <point x="358" y="591"/>
      <point x="331" y="626"/>
      <point x="279" y="626" type="curve" smooth="yes"/>
      <point x="221" y="626"/>
      <point x="187" y="583"/>
      <point x="187" y="523" type="curve" smooth="yes"/>
      <point x="187" y="396" type="line" smooth="yes"/>
      <point x="187" y="373"/>
      <point x="197" y="360"/>
      <point x="209" y="351" type="curve" smooth="yes"/>
      <point x="220" y="343"/>
      <point x="236" y="340"/>
      <point x="251" y="340" type="curve" smooth="yes"/>
      <point x="301" y="340"/>
      <point x="352" y="380"/>
      <point x="400" y="432" type="curve"/>
      <point x="386" y="440" type="line"/>
      <point x="401" y="422"/>
      <point x="416" y="394"/>
      <point x="416" y="346" type="curve" smooth="yes"/>
      <point x="416" y="270"/>
      <point x="366" y="222"/>
      <point x="286" y="222" type="curve" smooth="yes"/>
      <point x="153" y="222"/>
      <point x="89" y="344"/>
      <point x="39" y="536" type="curve"/>
      <point x="20" y="531" type="line"/>
      <point x="76" y="301"/>
      <point x="157" y="196"/>
    </contour>
  </outline>
</glyph>
<glyph name="s-beng" format="2">
  <advance width="619"/>
  <outline>
    <contour>
      <point x="449" y="379" type="curve" smooth="yes"/>
      <point x="519" y="379"/>
      <point x="550" y="421"/>
      <point x="550" y="482" type="curve" smooth="yes"/>
      <point x="550" y="527"/>
      <point x="532" y="575"/>
      <point x="484" y="616" type="curve"/>
      <point x="463" y="611" type="line"/>
      <point x="503" y="580"/>
      <point x="528" y="535"/>
      <point x="528" y="485" type="curve" smooth="yes"/>
      <point x="528" y="439"/>
      <point x="505" y="402"/>
      <point x="451" y="402" type="curve" smooth="yes"/>
      <point x="382" y="402"/>
      <point x="313" y="470"/>
      <point x="269" y="610" type="curve"/>
      <point x="242" y="610" type="line"/>
      <point x="219" y="508"/>
      <point x="185" y="432"/>
      <point x="134" y="432" type="curve" smooth="yes"/>
      <point x="104" y="432"/>
      <point x="74" y="466"/>
      <point x="55" y="499" type="curve"/>
      <point x="37" y="488" type="line"/>
      <point x="68" y="432"/>
      <point x="103" y="407"/>
      <point x="137" y="407" type="curve" smooth="yes"/>
      <point x="201" y="407"/>
      <point x="240" y="491"/>
      <point x="263" y="603" type="curve"/>
      <point x="251" y="603" type="line"/>
      <point x="286" y="499"/>
      <point x="342" y="379"/>
    </contour>
    <contour>
      <point x="-5" y="602" type="line"/>
      <point x="638" y="602" type="line"/>
      <point x="624" y="622" type="line"/>
      <point x="-19" y="622" type="line"/>
    </contour>
  </outline>
</glyph>
<glyph name="ss-beng" format="2">
  <advance width="463"/>
  <outline>
    <contour>
      <point x="201" y="355" type="curve" smooth="yes"/>
      <point x="295" y="355"/>
      <point x="381" y="408"/>
      <point x="381" y="503" type="curve" smooth="yes"/>
      <point x="381" y="574"/>
      <point x="335" y="614"/>
      <point x="247" y="614" type="curve" smooth="yes"/>
      <point x="155" y="614"/>
      <point x="75" y="559"/>
      <point x="75" y="472" type="curve" smooth="yes"/>
      <point x="75" y="398"/>
      <point x="135" y="355"/>
    </contour>
    <contour>
      <point x="201" y="376" type="curve" smooth="yes"/>
      <point x="145" y="376"/>
      <point x="97" y="410"/>
      <point x="97" y="470" type="curve" smooth="yes"/>
      <point x="97" y="548"/>
      <point x="180" y="596"/>
      <point x="254" y="596" type="curve" smooth="yes"/>
      <point x="321" y="596"/>
      <point x="359" y="563"/>
      <point x="359" y="508" type="curve" smooth="yes"/>
      <point x="359" y="418"/>
      <point x="275" y="376"/>
    </contour>
    <contour>
      <point x="317" y="390" type="line"/>
      <point x="330" y="406" type="line"/>
      <point x="152" y="576" type="line"/>
      <point x="137" y="561" type="line"/>
    </contour>
    <contour>
      <point x="-5" y="602" type="line"/>
      <point x="482" y="602" type="line"/>
      <point x="468" y="622" type="line"/>
      <point x="-19" y="622" type="line"/>
    </contour>
  </outline>
</glyph>
<glyph name="tt-beng" format="2">
  <advance width="400"/>
  <outline>
    <contour>
      <point x="167" y="184" type="curve" smooth="yes"/>
      <point x="257" y="184"/>
      <point x="344" y="298"/>
      <point x="344" y="399" type="curve" smooth="yes"/>
      <point x="344" y="436"/>
      <point x="325" y="459"/>
      <point x="294" y="459" type="curve" smooth="yes"/>
      <point x="266" y="459"/>
      <point x="251" y="439"/>
      <point x="251" y="418" type="curve" smooth="yes"/>
      <point x="251" y="394"/>
      <point x="267" y="377"/>
      <point x="292" y="377" type="curve" smooth="yes"/>
      <point x="309" y="377"/>
      <point x="319" y="384"/>
      <point x="327" y="399" type="curve"/>
      <point x="319" y="404" type="line"/>
      <point x="317" y="300"/>
      <point x="235" y="208"/>
      <point x="166" y="208" type="curve" smooth="yes"/>
      <point x="131" y="208"/>
      <point x="111" y="230"/>
      <point x="111" y="260" type="curve" smooth="yes"/>
      <point x="111" y="602" type="line"/>
      <point x="419" y="602" type="line"/>
      <point x="407" y="622" type="line"/>
      <point x="-19" y="622" type="line"/>
      <point x="-6" y="602" type="line"/>
      <point x="88" y="602" type="line"/>
      <point x="88" y="257" type="line" smooth="yes"/>
      <point x="88" y="214"/>
      <point x="121" y="184"/>
    </contour>
    <contour>
      <point x="313" y="618" type="curve"/>
      <point x="330" y="618" type="line"/>
      <point x="324" y="697"/>
      <point x="292" y="736"/>
      <point x="234" y="736" type="curve" smooth="yes"/>
      <point x="198" y="736"/>
      <point x="173" y="726"/>
      <point x="131" y="726" type="curve" smooth="yes"/>
      <point x="80" y="726"/>
      <point x="60" y="746"/>
      <point x="60" y="803" type="curve" smooth="yes"/>
      <point x="60" y="811"/>
      <point x="61" y="821"/>
      <point x="63" y="830" type="curve"/>
      <point x="46" y="832" type="line"/>
      <point x="45" y="823"/>
      <point x="43" y="809"/>
      <point x="43" y="798" type="curve" smooth="yes"/>
      <point x="43" y="731"/>
      <point x="72" y="703"/>
      <point x="130" y="703" type="curve" smooth="yes"/>
      <point x="174" y="703"/>
      <point x="194" y="712"/>
      <point x="240" y="712" type="curve" smooth="yes"/>
      <point x="286" y="712"/>
      <point x="309" y="674"/>
    </contour>
  </outline>
</glyph>
<glyph name="tta_iiMatra-beng" format="2">
  <advance width="697"/>
  <anchor x="305" y="44" name="bottom"/>
  <anchor x="351" y="14" name="bottom.rakaar"/>
  <anchor x="271" y="70" name="bottom.rvocalic"/>
  <anchor x="234" y="49" name="bottom.virama"/>
  <anchor x="599" y="653" name="top"/>
  <anchor x="450" y="602" name="topright"/>
  <anchor x="348" y="0" name="vedic"/>
  <anchor x="204" y="-32" name="nukta"/>
  <outline>
    <contour>
      <point x="596" y="-10" type="line"/>
      <point x="599" y="-9" type="line"/>
      <point x="599" y="602" type="line"/>
      <point x="716" y="602" type="line"/>
      <point x="702" y="622" type="line"/>
      <point x="598" y="622" type="line"/>
      <point x="579" y="840"/>
      <point x="418" y="888"/>
      <point x="290" y="888" type="curve" smooth="yes"/>
      <point x="168" y="888"/>
      <point x="80" y="844"/>
      <point x="80" y="777" type="curve" smooth="yes"/>
      <point x="80" y="751"/>
      <point x="95" y="734"/>
      <point x="113" y="724" type="curve"/>
      <point x="114" y="733" type="line"/>
      <point x="41" y="733"/>
      <point x="0" y="744"/>
      <point x="0" y="829" type="curve" smooth="yes"/>
      <point x="0" y="841"/>
      <point x="1" y="855"/>
      <point x="3" y="868" type="curve"/>
      <point x="-15" y="870" type="line"/>
      <point x="-17" y="860"/>
      <point x="-19" y="841"/>
      <point x="-19" y="826" type="curve" smooth="yes"/>
      <point x="-19" y="736"/>
      <point x="21" y="710"/>
      <point x="102" y="710" type="curve" smooth="yes"/>
      <point x="177" y="710"/>
      <point x="229" y="725"/>
      <point x="286" y="725" type="curve" smooth="yes"/>
      <point x="336" y="725"/>
      <point x="372" y="697"/>
      <point x="376" y="618" type="curve"/>
      <point x="398" y="618" type="line"/>
      <point x="391" y="720"/>
      <point x="340" y="748"/>
      <point x="285" y="748" type="curve" smooth="yes"/>
      <point x="232" y="748"/>
      <point x="204" y="738"/>
      <point x="151" y="738" type="curve" smooth="yes"/>
      <point x="114" y="738"/>
      <point x="101" y="755"/>
      <point x="101" y="779" type="curve" smooth="yes"/>
      <point x="101" y="835"/>
      <point x="191" y="867"/>
      <point x="292" y="867" type="curve" smooth="yes"/>
      <point x="440" y="867"/>
      <point x="560" y="806"/>
      <point x="576" y="622" type="curve"/>
      <point x="465" y="622" type="line"/>
      <point x="479" y="602" type="line"/>
      <point x="576" y="602" type="line"/>
      <point x="576" y="3" type="line"/>
    </contour>
    <component base="ddha-beng"/>
  </outline>
</glyph>
<glyph name="yNukta_ba-beng" format="2">
  <advance width="503"/>
  <anchor x="395" y="-125" name="bottom"/>
  <anchor x="405" y="-86" name="bottom.rakaar"/>
  <anchor x="405" y="-130" name="bottom.rvocalic"/>
  <anchor x="395" y="-136" name="bottom.virama"/>
  <anchor x="405" y="602" name="top"/>
  <anchor x="408" y="602" name="topright"/>
  <outline>
    <contour>
      <point x="387" y="169" type="curve"/>
      <point x="405" y="169" type="line"/>
      <point x="405" y="602" type="line"/>
      <point x="522" y="602" type="line"/>
      <point x="508" y="622" type="line"/>
      <point x="-19" y="622" type="line"/>
      <point x="5" y="583" type="line"/>
      <point x="131" y="556"/>
      <point x="209" y="509"/>
      <point x="253" y="447" type="curve"/>
      <point x="251" y="462" type="line"/>
      <point x="192" y="440"/>
      <point x="116" y="405"/>
      <point x="43" y="354" type="curve"/>
      <point x="57" y="326" type="line"/>
      <point x="192" y="300"/>
      <point x="308" y="244"/>
    </contour>
    <contour>
      <point x="160" y="148" type="curve" smooth="yes"/>
      <point x="182" y="148"/>
      <point x="201" y="164"/>
      <point x="201" y="188" type="curve" smooth="yes"/>
      <point x="201" y="213"/>
      <point x="182" y="229"/>
      <point x="160" y="229" type="curve" smooth="yes"/>
      <point x="137" y="229"/>
      <point x="118" y="213"/>
      <point x="118" y="188" type="curve" smooth="yes"/>
      <point x="118" y="164"/>
      <point x="137" y="148"/>
    </contour>
    <contour>
      <point x="402" y="-139" type="line"/>
      <point x="405" y="-138" type="line"/>
      <point x="405" y="285" type="line"/>
      <point x="382" y="285" type="line"/>
      <point x="382" y="-103" type="line"/>
      <point x="390" y="-93" type="line"/>
      <point x="326" y="-21"/>
      <point x="255" y="20"/>
      <point x="167" y="49" type="curve"/>
      <point x="167" y="41" type="line"/>
      <point x="243" y="98"/>
      <point x="332" y="129"/>
      <point x="390" y="152" type="curve"/>
      <point x="392" y="183" type="line"/>
      <point x="296" y="148"/>
      <point x="209" y="105"/>
      <point x="139" y="55" type="curve"/>
      <point x="154" y="26" type="line"/>
      <point x="247" y="1"/>
      <point x="320" y="-43"/>
      <point x="387" y="-125" type="curve"/>
    </contour>
    <contour>
      <point x="382" y="187" type="line"/>
      <point x="390" y="197" type="line"/>
      <point x="319" y="262"/>
      <point x="200" y="325"/>
      <point x="70" y="349" type="curve"/>
      <point x="70" y="341" type="line"/>
      <point x="134" y="388"/>
      <point x="196" y="412"/>
      <point x="275" y="448" type="curve"/>
      <point x="242" y="508"/>
      <point x="152" y="573"/>
      <point x="18" y="610" type="curve"/>
      <point x="24" y="602" type="line"/>
      <point x="382" y="602" type="line"/>
    </contour>
  </outline>
</glyph>
